<svg width="3698" height="2084" viewBox="0 0 3698 2084" fill="none" xmlns="http://www.w3.org/2000/svg">
<path d="M562.689 1548.81C562.689 1548.81 646.328 1450.44 567.849 1388.03C567.849 1388.03 510.44 1353.15 463.783 1355.96C463.783 1355.96 530.007 1467.99 508.505 1479.04C487.004 1490.09 443.572 1348.81 443.572 1348.81C443.572 1348.81 313.059 1336.03 271.132 1356.4C271.132 1356.4 382.723 1448.49 359.287 1453.9C335.85 1459.32 215.228 1369.18 215.228 1369.18C215.228 1369.18 93.7462 1389.98 100.197 1464.74C106.647 1539.49 148.574 1562.46 166.85 1560.51C185.342 1558.56 292.848 1517.17 295.213 1532.34C297.578 1547.51 232.859 1597.13 187.492 1599.51C187.492 1599.51 273.067 1694.63 330.045 1667.11C387.023 1639.6 391.754 1596.04 427.231 1579.79C462.708 1563.54 493.024 1563.54 478.404 1580.23C463.783 1596.91 399.494 1613.16 379.283 1649.13C359.072 1685.31 340.796 1709.58 399.709 1700.7C458.622 1691.81 554.303 1648.26 558.603 1598.64C562.688 1548.81 562.689 1548.81 562.689 1548.81Z" fill="#D5D6DA"/>
<path d="M159.971 1466.69C159.971 1466.69 489.8 1453.9 562.689 1549.02C562.689 1549.02 578.815 1597.56 628.483 1641.98L636.223 1663.21C636.223 1663.21 579.03 1602.54 558.604 1598.86C558.604 1598.64 590.426 1480.77 159.971 1466.69Z" fill="#D5D6DA"/>
<path d="M628.483 1641.76C628.483 1641.76 699.222 1694.63 704.167 1788.89L691.266 1789.97C691.266 1789.97 668.69 1692.46 627.838 1654.33C586.985 1616.19 628.483 1641.76 628.483 1641.76Z" fill="#599DAD"/>
<path d="M855.32 1425.08C855.32 1425.08 722.227 1349.9 784.366 1248.06C784.366 1248.06 834.033 1185.44 887.357 1169.41C887.357 1169.41 858.975 1321.51 887.357 1324.98C915.738 1328.66 906.923 1153.37 906.923 1153.37C906.923 1153.37 1047.11 1085.34 1102.15 1090.75C1102.15 1090.75 1015.29 1239.18 1043.67 1235.71C1072.05 1232.03 1169.67 1081.87 1169.67 1081.87C1169.67 1081.87 1313.51 1055 1336.52 1140.8C1359.52 1226.61 1322.33 1269.51 1301.04 1274.93C1279.75 1280.34 1143.01 1278.61 1146.66 1296.38C1150.32 1314.36 1242.56 1342.96 1293.95 1326.71C1293.95 1326.71 1237.18 1467.99 1162.57 1460.84C1087.96 1453.69 1064.96 1407.1 1018.73 1403.63C972.501 1399.95 938.96 1412.52 961.966 1425.08C984.972 1437.65 1063.02 1429.2 1100.43 1461.05C1137.63 1492.9 1167.95 1512.62 1098.71 1526.92C1029.48 1541.22 905.203 1532.34 880.476 1478.6C855.32 1425.08 855.32 1425.08 855.32 1425.08Z" fill="#6BB7BF"/>
<path d="M1270.51 1167.67C1270.51 1167.67 897.89 1289.23 855.318 1425.08C855.318 1425.08 857.038 1485.97 819.841 1555.74V1582.61C819.841 1582.61 858.973 1491.39 880.259 1478.82C880.044 1478.82 796.62 1360.73 1270.51 1167.67Z" fill="#6BB7BF"/>
<path d="M819.843 1555.74C819.843 1555.74 762.434 1643.71 795.116 1750.75L809.952 1746.85C809.952 1746.85 795.546 1628.98 825.648 1569.61C855.535 1510.24 819.843 1555.74 819.843 1555.74Z" fill="#6BB7BF"/>
<path d="M643.533 1321.51C643.533 1321.51 818.983 1222.49 737.063 1088.15C737.063 1088.15 671.484 1005.6 601.39 984.364C601.39 984.364 638.802 1184.79 601.39 1189.56C563.978 1194.32 575.589 963.346 575.589 963.346C575.589 963.346 390.893 873.858 318.219 880.792C318.219 880.792 432.82 1076.45 395.408 1071.68C357.996 1066.92 229.419 868.875 229.419 868.875C229.419 868.875 39.9926 833.556 9.67584 946.662C-20.6409 1059.77 28.3819 1116.32 56.5486 1123.47C84.7152 1130.62 264.681 1128.24 260.165 1151.86C255.435 1175.47 133.953 1213.17 66.0091 1191.94C66.0091 1191.94 140.833 1378.07 239.094 1368.75C337.355 1359.22 367.672 1298.11 428.52 1293.35C489.369 1288.58 533.876 1305.05 503.345 1321.73C473.028 1338.2 370.037 1327.15 320.799 1369.18C271.776 1411.22 231.999 1437.22 323.164 1456.07C414.329 1474.92 578.169 1463.22 610.851 1392.37C643.533 1321.51 643.533 1321.51 643.533 1321.51Z" fill="#EAEAEA"/>
<path d="M96.1123 982.197C96.1123 982.197 587.416 1142.54 643.534 1321.73C643.534 1321.73 641.169 1401.9 690.407 1493.77V1529.09C690.407 1529.09 639.019 1408.83 610.852 1392.37C610.852 1392.37 720.723 1236.79 96.1123 982.197Z" fill="#D5D6DA"/>
<path d="M690.409 1493.77C690.409 1493.77 766.093 1609.69 722.876 1750.75L703.31 1745.55C703.31 1745.55 722.231 1590.19 682.668 1511.97C643.106 1433.75 690.409 1493.77 690.409 1493.77Z" fill="#6BB7BF"/>
<path d="M564.838 2054.1C578.814 2055.83 593.005 2056.7 607.626 2056.7C797.482 2056.7 951.216 1901.56 951.216 1710.45H865.856C865.856 1887.04 734.483 2032.86 564.838 2054.1Z" fill="#FFEBDC"/>
<path d="M2843.33 1278.39C2843.33 1278.39 2734.31 1071.25 2897.51 992.381C2897.51 992.381 3012.54 953.596 3093.82 977.214C3093.82 977.214 2932.77 1148.39 2966.31 1176.56C2999.85 1204.72 3132.09 972.88 3132.09 972.88C3132.09 972.88 3367.53 1002.56 3433.54 1055.22C3433.54 1055.22 3200.46 1172.87 3239.59 1191.94C3278.94 1211.01 3527.07 1099.85 3527.07 1099.85C3527.07 1099.85 3733.26 1185.22 3692.41 1314.36C3651.56 1443.5 3568.56 1467.55 3536.96 1456.72C3505.35 1445.89 3331.62 1329.75 3321.51 1355.53C3311.41 1381.32 3406.23 1494.85 3485.35 1517.17C3485.35 1517.17 3296.79 1650.86 3207.13 1579.58C3117.47 1508.29 3126.07 1429.64 3069.95 1386.52C3013.83 1343.4 2960.29 1331.48 2979.64 1366.8C2998.99 1402.12 3105.86 1456.29 3127.36 1528.22C3148.86 1600.16 3171.43 1650.43 3071.02 1611.21C2970.61 1571.99 2818.81 1456.94 2831.07 1367.45C2843.33 1278.39 2843.33 1278.39 2843.33 1278.39Z" fill="#D5D6DA"/>
<path d="M3586.62 1294.43C3586.62 1294.43 3009.53 1139.72 2843.33 1278.39C2843.33 1278.39 2795.81 1357.7 2690.88 1415.98L2668.95 1450.44C2668.95 1450.44 2793.87 1366.15 2831.28 1367.88C2831.07 1367.88 2821.18 1147.3 3586.62 1294.43Z" fill="#D5D6DA"/>
<path d="M2690.88 1416.2C2690.88 1416.2 2545.1 1480.99 2499.3 1645.45L2521.45 1652.6C2521.45 1652.6 2599.72 1489.65 2687.01 1438.74C2774.09 1387.82 2690.88 1416.2 2690.88 1416.2Z" fill="#599DAD"/>
<path d="M2206.24 854.141C2206.24 854.141 1883.72 684.699 2024.56 437.254C2024.56 437.254 2138.51 284.497 2264.3 242.245C2264.3 242.245 2207.32 606.696 2275.26 613.196C2343.21 619.696 2309.66 202.593 2309.66 202.593C2309.66 202.593 2639.06 30.5514 2770.44 39.4352C2770.44 39.4352 2573.7 399.552 2641 388.935C2708.51 378.318 2930.41 13.4339 2930.41 13.4339C2930.41 13.4339 3271.2 -60.8863 3332.26 142.14C3393.33 345.166 3307.54 450.038 3257.01 464.339C3206.7 478.64 2880.74 484.056 2890.63 526.525C2900.3 568.994 3122.41 630.53 3243.89 588.495C3243.89 588.495 3118.54 929.328 2940.3 917.627C2762.05 905.927 2703.78 796.721 2593.7 791.521C2483.39 786.321 2404.05 818.606 2459.96 846.774C2515.86 874.942 2701.42 849.374 2792.37 922.827C2883.53 996.281 2956.64 1040.92 2792.8 1080.13C2628.74 1119.14 2332.03 1106.79 2269.03 980.68C2206.24 854.141 2206.24 854.141 2206.24 854.141Z" fill="#EAEAEA"/>
<path d="M3177.89 210.61C3177.89 210.61 2298.27 527.175 2206.24 854.141C2206.24 854.141 2214.85 998.881 2130.78 1167.89L2132.71 1231.81C2132.71 1231.81 2219.36 1011.67 2269.24 980.247C2269.24 980.247 2062.19 704.85 3177.89 210.61Z" fill="#D5D6DA"/>
<path d="M2130.99 1167.89C2130.99 1167.89 2000.26 1381.53 2085.84 1634.39L2120.88 1623.78C2120.88 1623.78 2078.31 1343.83 2145.82 1200.17C2213.12 1056.73 2130.99 1167.89 2130.99 1167.89Z" fill="#6BB7BF"/>
<path d="M458.836 2074.47H2299.56L2684.65 484.707H843.923L458.836 2074.47Z" fill="#364154"/>
<path d="M3070.38 2074.47H1229.66L844.569 484.707H2685.29L3070.38 2074.47Z" fill="#B8C1C9"/>
<path d="M2944.17 1984.33H1312.22L970.783 574.627H2602.73L2944.17 1984.33Z" fill="#EAEAEA"/>
<path d="M1258.25 952.729H1106.67L1075.06 821.856H1226.65L1258.25 952.729Z" fill="#00A3FE"/>
<path d="M1487.89 952.729H1336.09L1304.48 821.856H1456.07L1487.89 952.729Z" fill="#00A3FE"/>
<path d="M1719.88 952.729H1568.3L1536.48 821.856H1688.28L1719.88 952.729Z" fill="#00A3FE"/>
<path d="M1952.1 952.729H1800.52L1768.69 821.856H1920.28L1952.1 952.729Z" fill="#00A3FE"/>
<path d="M2184.1 952.729H2032.51L2000.91 821.856H2152.49L2184.1 952.729Z" fill="#00A3FE"/>
<path d="M2416.31 952.729H2264.73L2232.91 821.856H2384.49L2416.31 952.729Z" fill="#00A3FE"/>
<path d="M2648.52 952.729H2496.72L2465.12 821.856H2616.7L2648.52 952.729Z" fill="#00A3FE"/>
<path d="M1321.68 1184.57H1169.89L1138.28 1053.7H1289.86L1321.68 1184.57Z" fill="#00A3FE"/>
<path d="M1551.1 1184.57H1399.52L1367.69 1053.7H1519.28L1551.1 1184.57Z" fill="#00A3FE"/>
<path d="M1783.1 1184.57H1631.52L1599.91 1053.7H1751.49L1783.1 1184.57Z" fill="#00A3FE"/>
<path d="M2015.31 1184.57H1863.73L1831.91 1053.7H1983.49L2015.31 1184.57Z" fill="#00A3FE"/>
<path d="M2247.53 1184.57H2095.73L2064.12 1053.7H2215.7L2247.53 1184.57Z" fill="#00A3FE"/>
<path d="M2479.52 1184.57H2327.94L2296.12 1053.7H2447.92L2479.52 1184.57Z" fill="#00A3FE"/>
<path d="M2711.74 1184.57H2559.94L2528.33 1053.7H2679.92L2711.74 1184.57Z" fill="#00A3FE"/>
<path d="M1379.09 1413.38H1227.51L1195.68 1282.51H1347.27L1379.09 1413.38Z" fill="#00A3FE"/>
<path d="M1608.51 1413.38H1456.93L1425.1 1282.51H1576.9L1608.51 1413.38Z" fill="#00A3FE"/>
<path d="M1840.72 1413.38H1689.14L1657.32 1282.51H1808.9L1840.72 1413.38Z" fill="#00A3FE"/>
<path d="M2072.72 1413.38H1921.14L1889.53 1282.51H2041.12L2072.72 1413.38Z" fill="#00A3FE"/>
<path d="M2304.93 1413.38H2153.35L2121.53 1282.51H2273.11L2304.93 1413.38Z" fill="#00A3FE"/>
<path d="M2537.15 1413.38H2385.35L2353.74 1282.51H2505.33L2537.15 1413.38Z" fill="#00A3FE"/>
<path d="M2769.14 1413.38H2617.56L2585.74 1282.51H2737.54L2769.14 1413.38Z" fill="#00A3FE"/>
<path d="M1436.5 1636.56H1284.92L1253.31 1505.47H1404.89L1436.5 1636.56Z" fill="#00A3FE"/>
<path d="M1666.13 1636.56H1514.33L1482.73 1505.47H1634.31L1666.13 1636.56Z" fill="#00A3FE"/>
<path d="M1898.13 1636.56H1746.55L1714.73 1505.47H1866.52L1898.13 1636.56Z" fill="#00A3FE"/>
<path d="M2130.34 1636.56H1978.76L1946.94 1505.47H2098.52L2130.34 1636.56Z" fill="#00A3FE"/>
<path d="M2362.34 1636.56H2210.76L2179.15 1505.47H2330.74L2362.34 1636.56Z" fill="#00A3FE"/>
<path d="M2594.55 1636.56H2442.97L2411.15 1505.47H2562.73L2594.55 1636.56Z" fill="#00A3FE"/>
<path d="M2826.77 1636.56H2674.97L2643.36 1505.47H2794.95L2826.77 1636.56Z" fill="#00A3FE"/>
<path d="M1491.11 1856.71H1339.53L1307.92 1725.83H1459.5L1491.11 1856.71Z" fill="#00A3FE"/>
<path d="M1720.75 1856.71H1568.95L1537.34 1725.83H1688.92L1720.75 1856.71Z" fill="#00A3FE"/>
<path d="M1952.75 1856.71H1801.16L1769.34 1725.83H1921.14L1952.75 1856.71Z" fill="#00A3FE"/>
<path d="M458.836 2074.47L849.729 1998.85L1229.66 2074.47H458.836Z" fill="#131F2D"/>
<path d="M1170.1 318.515C1077.86 318.515 1002.39 392.836 999.811 485.357H1067.97C1070.55 430.754 1115.27 387.202 1170.1 387.202C1226.43 387.202 1272.23 433.354 1272.23 490.124C1272.23 546.893 1226.43 593.045 1170.1 593.045C1151.18 593.045 1136.13 608.429 1136.13 627.28C1136.13 646.348 1151.39 661.515 1170.1 661.515C1264.06 661.515 1340.39 584.595 1340.39 489.907C1340.39 395.436 1264.06 318.515 1170.1 318.515Z" fill="#131F2D"/>
<path d="M1601.63 318.515C1509.39 318.515 1433.92 392.836 1431.34 485.357H1499.5C1502.08 430.754 1546.8 387.202 1601.63 387.202C1657.96 387.202 1703.76 433.354 1703.76 490.124C1703.76 546.893 1657.96 593.045 1601.63 593.045C1582.71 593.045 1567.65 608.429 1567.65 627.28C1567.65 646.348 1582.92 661.515 1601.63 661.515C1695.59 661.515 1771.92 584.595 1771.92 489.907C1771.92 395.436 1695.59 318.515 1601.63 318.515Z" fill="#131F2D"/>
<path d="M2033.16 318.515C1940.92 318.515 1865.45 392.836 1862.87 485.357H1931.03C1933.61 430.754 1978.33 387.202 2033.16 387.202C2089.49 387.202 2135.29 433.354 2135.29 490.124C2135.29 546.893 2089.49 593.045 2033.16 593.045C2014.24 593.045 1999.19 608.429 1999.19 627.28C1999.19 646.348 2014.45 661.515 2033.16 661.515C2127.12 661.515 2203.45 584.595 2203.45 489.907C2203.45 395.436 2127.12 318.515 2033.16 318.515Z" fill="#131F2D"/>
<path d="M2464.69 318.515C2372.45 318.515 2296.98 392.836 2294.4 485.357H2362.56C2365.14 430.754 2409.86 387.202 2464.69 387.202C2521.02 387.202 2566.82 433.354 2566.82 490.124C2566.82 546.893 2521.02 593.045 2464.69 593.045C2445.77 593.045 2430.72 608.429 2430.72 627.28C2430.72 646.348 2445.98 661.515 2464.69 661.515C2558.65 661.515 2634.98 584.595 2634.98 489.907C2634.98 395.436 2558.65 318.515 2464.69 318.515Z" fill="#131F2D"/>
<path d="M844.568 484.707L849.729 1998.85L458.836 2074.47L844.568 484.707Z" fill="#657285"/>
<path d="M2058.75 1037.67C2117.66 1054.78 2177.43 1057.17 2224.95 1049.15C2272.9 1041.13 2305.15 1014.27 2313.54 984.797C2321.28 957.929 2309.88 928.028 2280.64 897.91C2308.59 926.728 2318.48 959.879 2311.39 984.147C2303.64 1011.23 2272.68 1031.17 2226.67 1038.97C2179.37 1046.98 2121.1 1042 2062.4 1024.67C2003.7 1007.55 1951.67 980.247 1916.19 948.179C1881.36 916.761 1865.88 883.176 1873.62 856.091C1881.79 827.49 1916.62 799.105 1964.14 781.987C2018.32 762.487 2076.81 766.603 2132.28 782.638C2236.13 812.972 2272.25 848.724 2301.06 888.593C2272.25 848.507 2239.36 803.005 2135.07 772.454C2079.39 756.203 2018.97 757.936 1964.57 777.654C1915.98 795.205 1880.28 824.89 1871.68 855.441C1863.08 884.909 1878.35 919.361 1914.69 951.862C1950.16 984.364 1999.83 1020.55 2058.75 1037.67Z" fill="#131F2D"/>
<path d="M3107.57 1238.96C3107.57 1238.96 3102.84 1285.33 3097.68 1294.21C3092.52 1303.1 3070.38 1331.05 3060.92 1336.46C3051.46 1341.88 3066.72 1299.41 3064.79 1291.18C3062.85 1282.94 3057.05 1306.35 3052.96 1306.78C3048.88 1307.43 3049.95 1286.41 3049.74 1278.61C3049.52 1271.03 3069.95 1252.18 3077.04 1235.71C3084.14 1219.68 3107.57 1238.96 3107.57 1238.96Z" fill="#FF7955"/>
<path d="M2541.66 810.806L2531.13 790.655C2531.13 790.655 2536.29 754.686 2491.78 732.152C2491.78 732.152 2475.44 725.435 2466.19 738.869C2457.81 751.219 2482.32 749.052 2481.03 770.07C2479.74 791.088 2489.63 803.655 2503.61 810.372L2515 823.806L2541.66 810.806Z" fill="#FF7955"/>
<path d="M2963.3 762.487C2963.3 762.487 2925.03 952.079 2714.1 1013.83C2648.31 1033.12 2498.87 814.706 2498.87 814.706C2498.87 814.706 2504.03 794.555 2537.15 799.105C2537.15 799.105 2682.71 896.176 2700.99 906.794C2717.33 916.111 2824.19 786.538 2873 765.52C2921.59 744.936 2963.3 762.487 2963.3 762.487Z" fill="#016EB9"/>
<path d="M2402.08 725.393L2396.11 764.585L2591.84 794.878L2597.81 755.686L2402.08 725.393Z" fill="#131F2D"/>
<path d="M2353.74 737.785L2396.31 764.653L2402.12 725.218L2353.74 737.785Z" fill="#FF7955"/>
<path d="M2618.85 772.237L2616.92 784.588C2615.84 792.171 2608.75 797.372 2601.01 796.288L2591.98 794.988L2598 755.77L2607.89 757.286C2614.98 758.153 2619.93 764.87 2618.85 772.237Z" fill="#FF7955"/>
<path d="M3214.86 1953.78C3214.86 1953.78 3241.1 1977.83 3235.94 1994.95C3230.78 2012.06 3207.12 2023.33 3204.11 2044.35C3200.89 2065.15 3188.2 2076.63 3176.59 2076.63C3165.2 2076.63 3121.76 2076.63 3121.76 2076.63C3121.76 2076.63 3113.38 2061.9 3133.8 2057.57C3154.23 2053.23 3161.97 2028.53 3160.68 2005.78C3159.39 1983.03 3162.62 1952.69 3162.62 1952.69L3206.05 1942.51L3214.86 1953.78Z" fill="#131F2D"/>
<path d="M2894.07 2015.96C2894.07 2015.96 2898.8 2070.78 2887.19 2076.42L2740.33 2076.2C2740.33 2076.2 2740.33 2059.08 2763.98 2055.4C2787.64 2051.5 2829.13 2037.63 2836.01 2006.65C2842.89 1975.44 2894.07 2015.96 2894.07 2015.96Z" fill="#131F2D"/>
<path d="M2770 1242.86C2770 1242.86 2777.74 1338.85 2786.77 1454.12C2799.25 1610.78 2814.08 1803.19 2815.59 1839.8C2818.17 1903.07 2828.27 2004.48 2828.27 2004.48C2828.27 2004.48 2852.57 2028.53 2900.95 2018.35C2900.95 2018.35 2944.16 1873.82 2956.42 1720.85C2956.63 1718.25 2956.85 1715.87 2957.06 1713.27C2968.46 1557.47 2986.31 1229.64 2986.31 1229.64L2770 1242.86Z" fill="#364154"/>
<path d="M2770 1242.86C2770 1242.86 2777.74 1338.85 2786.77 1454.12L2956.63 1720.63C2956.85 1718.03 2957.06 1715.65 2957.28 1713.05C2968.68 1557.26 2986.52 1229.43 2986.52 1229.43L2770 1242.86Z" fill="#131F2D"/>
<path d="M2805.27 1254.13C2805.27 1254.13 2945.03 1601.68 3036.84 1765.05C3128.65 1928.43 3157.46 1973.93 3157.46 1973.93C3157.46 1973.93 3210.14 1953.13 3214.87 1938.83C3214.87 1938.83 3179.82 1623.56 3118.33 1546.64C3083.49 1503.31 3042.64 1372.87 3040.92 1327.36C3038.99 1281.86 3028.45 1191.51 3028.45 1191.51L2805.27 1254.13Z" fill="#364154"/>
<path d="M2989.1 718.718C2989.1 718.718 2894.5 764.653 2840.1 747.536C2840.1 747.536 2853.43 730.418 2877.08 717.851C2875.15 706.8 2873.64 697.267 2872.78 689.25C2870.42 670.615 2870.42 659.998 2870.42 659.998L2906.97 631.18L2941.58 603.445C2938.79 681.016 2989.1 718.718 2989.1 718.718Z" fill="#FF7955"/>
<path d="M3038.99 1209.27C3039.2 1215.12 3026.73 1221.84 3021.36 1224.23C2980.93 1242.21 2943.09 1254.56 2900.52 1258.68C2849.99 1263.88 2790.22 1252.39 2769.79 1252.83C2767.64 1252.83 2765.71 1251.96 2764.2 1250.44C2762.7 1249.36 2761.62 1188.04 2762.7 1110.9C2762.7 1107.87 2762.7 1104.62 2762.91 1101.59V1100.72C2763.34 1070.6 2764.42 1038.97 2765.92 1007.33C2768.93 937.778 2774.31 870.825 2783.55 833.773C2794.73 790.004 2819.89 761.186 2842.68 740.169L2861.6 723.485C2880.52 727.168 2900.3 726.085 2920.3 716.334C2942.02 705.717 2965.67 694.233 2969.32 697.267C2997.92 718.284 3017.06 765.52 3027.38 825.756C3033.18 860.425 3036.19 899.426 3035.98 940.162C3035.98 955.112 3035.55 970.497 3034.69 985.664C3029.74 1068 3034.69 1139.5 3037.7 1180.89C3038.13 1193.24 3038.77 1202.56 3038.99 1209.27Z" fill="#00A3FE"/>
<path d="M3037.27 1205.59C2706.36 1204.94 2976.2 843.74 2976.2 843.74L3029.74 826.19C3034.04 863.241 3036.19 904.843 3035.98 948.395C3035.98 964.429 3035.76 980.897 3035.12 997.148C3031.46 1084.9 3035.12 1161.39 3037.27 1205.59Z" fill="#016EB9"/>
<path d="M2942.23 632.914C2942.23 632.914 2918.37 676.899 2872.78 689.033C2870.42 670.399 2870.42 659.782 2870.42 659.782L2906.97 630.964L2942.23 632.914Z" fill="#EF6343"/>
<path d="M2853.86 658.481C2853.86 658.481 2943.95 673.432 2952.55 617.53C2960.93 561.627 2978.35 525.875 2921.16 514.175C2863.96 502.257 2849.56 521.975 2842.03 539.959C2834.51 557.943 2830.64 653.281 2853.86 658.481Z" fill="#FF7955"/>
<path d="M2985.23 507.458C2986.09 506.591 2988.03 505.724 2992.11 505.508C2992.11 505.508 2988.67 503.341 2984.37 503.341C2983.51 497.49 2980.29 487.09 2970.4 484.49C2970.4 484.49 2975.77 487.307 2976.42 493.59C2964.81 481.456 2939.87 472.789 2870.63 478.206C2779.47 485.357 2809.57 544.293 2821.39 551.226C2833.22 558.16 2862.89 539.093 2884.82 540.826C2906.75 542.559 2911.05 574.628 2918.36 578.961C2925.89 583.295 2922.88 575.494 2932.99 570.944C2943.09 566.394 2943.95 583.295 2941.16 594.129C2938.15 605.179 2952.12 619.48 2952.12 619.48C2952.12 619.48 2952.12 619.48 2966.1 604.312C2980.07 589.145 2993.19 524.792 2986.95 511.141C2986.52 509.841 2985.88 508.541 2985.23 507.458Z" fill="#131F2D"/>
<path d="M2968.89 697.05C2968.89 697.05 3025.87 724.351 3053.39 766.17C3095.75 831.173 3144.99 1067.78 3145.85 1089.67C3146.71 1111.55 3109.94 1266.26 3109.94 1266.26C3109.94 1266.26 3072.53 1263.88 3063.07 1244.81C3063.07 1244.81 3070.59 1085.77 3065.86 1075.58C3061.13 1065.4 2910.2 862.375 2927.18 819.039C2943.95 775.704 2968.89 697.05 2968.89 697.05Z" fill="#00A3FE"/>
<path d="M2530.91 789.571C2530.91 789.571 2533.92 777.221 2525.54 771.587C2516.94 765.953 2509.2 751.003 2505.54 752.953C2498.02 757.286 2509.63 770.287 2507.48 786.754C2506.83 792.821 2519.95 807.772 2530.91 789.571Z" fill="#FF7955"/>
<path d="M149.432 2084H3673.49C3675.85 2084 3677.57 2082.05 3677.57 2079.88V2077.28C3677.57 2074.9 3675.64 2073.17 3673.49 2073.17H149.432C147.067 2073.17 145.347 2075.12 145.347 2077.28V2079.88C145.347 2082.27 147.067 2084 149.432 2084Z" fill="#364154"/>
</svg>
